<svg width="60" height="60" viewBox="0 0 60 60" fill="none" xmlns="http://www.w3.org/2000/svg">
<rect width="60" height="60" rx="12" fill="none"/>
<g transform="translate(7, 4) scale(0.1215)">
<path fill-rule="evenodd" clip-rule="evenodd" d="M186.756 358.759L186.587 358.759L186.641 358.759L186.684 358.759L186.756 358.759ZM186 427.768C186.072 427.768 186.144 427.768 186.215 427.768L186.101 427.768L186 427.768ZM186.477 427.768L186.504 427.768C186.554 427.768 186.605 427.768 186.656 427.767C186.596 427.768 186.536 427.768 186.477 427.768Z" fill="url(#bt_g0)"/>
<path fill-rule="evenodd" clip-rule="evenodd" d="M186.661 358.759L186.684 358.759C186.674 358.759 186.671 358.759 186.661 358.759Z" fill="url(#bt_g1)"/>
<path fill-rule="evenodd" clip-rule="evenodd" d="M186.756 358.759L186.587 358.759L186.641 358.759L186.756 358.759Z" fill="url(#bt_g2)"/>
<path fill-rule="evenodd" clip-rule="evenodd" d="M82.4928 401.966C112.606 419.155 148.166 427.656 186 427.768C186.077 427.768 186.155 427.768 186.232 427.768L186.38 427.768L186.477 427.768C186.536 427.768 186.596 427.768 186.656 427.767C186.689 427.767 186.722 427.767 186.756 427.767C221.807 427.663 254.906 420.36 283.531 405.618C296.102 399.143 307.811 391.234 318.443 381.87C353.744 350.779 372.639 307.415 372.756 261.284V251.944C368.005 164.264 294.384 94.5413 186.756 94.0031V93.9369C142.821 93.9369 101.921 105.229 69.009 128.279V0H0V261.284C0.116251 307.415 19.0112 350.779 54.3126 381.87C63.0224 389.541 72.455 396.236 82.4928 401.966ZM71.0105 280.584C76.342 306.198 92.1993 328.168 117.084 342.236C135.462 352.625 158.764 358.705 186.385 358.759C251.399 358.627 292.477 325.111 301.745 280.584C303.044 274.346 303.718 267.892 303.747 261.284V260.852C303.747 229.963 289.652 202.415 263.667 184.471C244.242 171.056 218.172 163.01 186.378 162.946C112.053 163.094 69.009 206.871 69.009 260.852V261.284C69.0377 267.892 69.7116 274.346 71.0105 280.584ZM186.587 358.759L186.756 358.759L186.684 358.759L186.641 358.759L186.587 358.759Z" fill="url(#bt_g3)"/>
<path d="M98.849 205.46C95.9075 183.252 111.777 162.958 134.039 160.458L250.471 147.383C272.141 144.949 291.767 160.321 294.597 181.942L303.438 249.5C304 256.274 304 262 304 262C303.5 278.5 299.498 290 299.498 290C292 312 279.54 326.199 263.5 337.5C240.119 353.973 206.093 359 194 359C164.5 359 142 356 117 342.5L98.849 205.46Z" fill="#FFD900"/>
</g>
<defs>
<linearGradient id="bt_g0" x1="9.78787e-05" y1="33.4998" x2="766" y2="338.999" gradientUnits="userSpaceOnUse">
<stop stop-color="#1247E6"/>
<stop offset="1" stop-color="#00185F"/>
</linearGradient>
<linearGradient id="bt_g1" x1="372.756" y1="33.4998" x2="-393.245" y2="338.999" gradientUnits="userSpaceOnUse">
<stop stop-color="#5A01FF"/>
<stop offset="1" stop-color="#5234FF"/>
</linearGradient>
<linearGradient id="bt_g2" x1="9.78787e-05" y1="33.4998" x2="766" y2="338.999" gradientUnits="userSpaceOnUse">
<stop stop-color="#1247E6"/>
<stop offset="1" stop-color="#00185F"/>
</linearGradient>
<linearGradient id="bt_g3" x1="9.78787e-05" y1="33.4998" x2="766" y2="338.999" gradientUnits="userSpaceOnUse">
<stop stop-color="#1247E6"/>
<stop offset="1" stop-color="#00185F"/>
</linearGradient>
</defs>
</svg>
